<?xml version="1.0" ?><svg id="Outline" viewBox="0 0 512 512" xmlns="http://www.w3.org/2000/svg"><defs><style>.cls-1{fill:#262626;}</style></defs><path class="cls-1" d="M142.3,214.17a61.8,61.8,0,1,0-43.7-18.1A61.4,61.4,0,0,0,142.3,214.17Zm-27.66-89.46a39.12,39.12,0,1,1-11.46,27.66A38.86,38.86,0,0,1,114.64,124.71Z"/><path class="cls-1" d="M234.58,323.3A92.28,92.28,0,0,0,50,323.3a11.34,11.34,0,0,0,11.34,11.33H223.24A11.34,11.34,0,0,0,234.58,323.3ZM73.62,312A69.61,69.61,0,0,1,211,312Z"/><path class="cls-1" d="M369.05,214.17a61.8,61.8,0,1,0-43.7-18.1A61.39,61.39,0,0,0,369.05,214.17Zm-27.67-89.46a39.12,39.12,0,1,1-11.46,27.66A38.88,38.88,0,0,1,341.38,124.71Z"/><path class="cls-1" d="M369.05,231a92.38,92.38,0,0,0-92.28,92.28,11.33,11.33,0,0,0,11.34,11.33H450a11.33,11.33,0,0,0,11.33-11.33A92.37,92.37,0,0,0,369.05,231ZM300.37,312a69.6,69.6,0,0,1,137.35,0Z"/><path class="cls-1" d="M369.05,359.32a11.34,11.34,0,0,0-11.34,11.34v14.63a12.85,12.85,0,0,1-12.84,12.84H166.48a12.85,12.85,0,0,1-12.84-12.84V370.66a11.34,11.34,0,1,0-22.68,0v14.63a35.57,35.57,0,0,0,35.52,35.52H344.87a35.56,35.56,0,0,0,35.51-35.52V370.66A11.34,11.34,0,0,0,369.05,359.32Z"/></svg>