<?xml version="1.0" encoding="iso-8859-1"?>
<!-- Generator: Adobe Illustrator 19.0.0, SVG Export Plug-In . SVG Version: 6.00 Build 0)  -->
<svg version="1.1" id="Layer_1" xmlns="http://www.w3.org/2000/svg" xmlns:xlink="http://www.w3.org/1999/xlink" x="0px" y="0px"
	 viewBox="0 0 512 512" style="enable-background:new 0 0 512 512;" xml:space="preserve">
<g>
	<g>
		<g>
			<path d="M128.804,337.367c-4.498-3.803-11.229-3.242-15.033,1.259c-1.504,1.779-2.96,3.567-4.327,5.312
				c-3.63,4.64-2.813,11.344,1.825,14.974c1.951,1.53,4.268,2.269,6.568,2.269c3.168,0,6.303-1.404,8.406-4.092
				c1.202-1.535,2.486-3.113,3.819-4.688C133.865,347.902,133.303,341.172,128.804,337.367z"/>
			<path d="M255.999,64.003c1.827,0,3.639,0.059,5.388,0.173c0.24,0.017,0.475,0.022,0.71,0.022c5.571,0,10.262-4.328,10.634-9.967
				c0.385-5.88-4.067-10.958-9.946-11.344c-2.212-0.144-4.494-0.219-6.785-0.219c-5.891,0-10.667,4.778-10.667,10.667
				C245.332,59.228,250.108,64.003,255.999,64.003z"/>
			<path d="M501.333,490.666h-16v-32.002c0-43.002-11.974-84.925-34.632-121.236c-20.221-32.404-48.173-59.207-81.22-78.057
				c4.258-11.181,7.694-26.234,11.285-48.05c0.571-3.469,1.178-6.378,1.88-9.746c0.746-3.579,1.619-7.758,2.625-13.539h7.404
				c5.889,0,10.667-4.775,10.667-10.667c0-11.493-4.586-21.408-12.596-29.819c0.027-0.245,0.057-0.49,0.081-0.723
				c0.631-5.517,0.823-7.254,0.868-8.144c0.825-15.448-0.175-27.637-3.052-37.261c-9.25-30.973-26.804-56.815-50.763-74.735
				C314.543,9.23,286.228,0.001,256.001,0.001c-30.227,0-58.542,9.229-81.884,26.688c-23.958,17.921-41.512,43.762-50.762,74.732
				c-2.827,9.456-3.841,21.358-3.1,36.377c0.051,1.049,0.31,3.688,0.848,9.049c0.026,0.254,0.052,0.516,0.078,0.779
				c-7.969,8.394-12.527,18.284-12.527,29.744c0,5.891,4.777,10.667,10.667,10.667h7.404c0.992,5.698,1.845,9.801,2.629,13.556
				c0.701,3.362,1.308,6.267,1.877,9.733c3.591,21.815,7.027,36.865,11.284,48.046c-33.045,18.85-60.998,45.652-81.217,78.059
				c-22.655,36.31-34.632,78.233-34.632,121.233v32.002h-16C4.776,490.666,0,495.441,0,501.332c0,5.889,4.776,10.667,10.667,10.667
				h26.667h79.998h277.332h80.003h26.667c5.892,0,10.667-4.778,10.667-10.667C512,495.441,507.226,490.666,501.333,490.666z
				 M143.797,107.527c15.88-53.165,58.874-86.192,112.204-86.192c53.329,0,96.324,33.027,112.202,86.197
				c1.867,6.24,2.665,14.739,2.385,25.244c-6.328-3.381-13.383-6.363-21.012-8.953c-0.689-6.723-2.538-12.538-2.833-13.434
				c-9.027-27.386-27.096-48.452-50.877-59.319c-5.36-2.446-11.688-0.09-14.136,5.269c-2.448,5.358-0.09,11.688,5.268,14.136
				c18.317,8.369,32.337,24.916,39.482,46.584c0.046,0.144,0.096,0.304,0.148,0.47c-21.788-4.75-46.243-7.04-70.63-7.04
				c-42.978,0-86.176,7.104-114.584,22.282C141.135,122.242,141.934,113.759,143.797,107.527z M133.25,166.701
				c6.697-10.604,22.225-17.74,32.446-21.475c23.302-8.518,56.217-13.404,90.303-13.404c34.086,0,67,4.885,90.302,13.404
				c10.221,3.735,25.75,10.87,32.446,21.475H133.25z M363.597,188.035c-0.667,3.585-1.27,6.481-1.834,9.183
				c-0.721,3.458-1.402,6.723-2.046,10.642c-8.958,54.409-14.608,58-38.389,73.128c-3.971,2.525-8.459,5.379-13.454,8.761
				c-34.425,19.748-69.322,19.75-103.746,0.004c-4.998-3.383-9.487-6.238-13.457-8.763c-23.783-15.13-29.433-18.723-38.39-73.13
				c-0.644-3.913-1.323-7.173-2.043-10.623c-0.564-2.706-1.168-5.606-1.837-9.202H363.597z M383.997,490.666H127.998v-42.669
				h117.336v21.336c0,5.889,4.776,10.667,10.667,10.667c5.889,0,10.667-4.778,10.667-10.667v-21.336h117.33V490.666z
				 M147.745,426.663l26.667-21.331h70.923v21.331H147.745z M266.668,426.663v-21.331h70.921l26.669,21.331H266.668z
				 M463.997,490.663h-58.669v-52.838c0.006-0.166,0.025-0.33,0.025-0.496c0-3.31-1.521-6.258-3.89-8.214
				c-0.015-0.013-0.029-0.023-0.044-0.035c-0.169-0.138-0.331-0.286-0.509-0.413l-52.921-42.331
				c-1.889-1.513-4.24-2.337-6.662-2.337H170.669c-2.422,0-4.772,0.825-6.663,2.337l-53.336,42.665
				c-0.018,0.015-0.034,0.031-0.051,0.046c-0.094,0.075-0.182,0.157-0.273,0.236c-0.15,0.131-0.298,0.262-0.439,0.4
				c-0.09,0.085-0.175,0.175-0.26,0.265c-0.138,0.142-0.269,0.288-0.396,0.435c-0.08,0.092-0.159,0.183-0.236,0.279
				c-0.131,0.162-0.254,0.33-0.374,0.5c-0.063,0.088-0.128,0.171-0.189,0.26c-0.161,0.244-0.313,0.494-0.453,0.748
				c-0.069,0.125-0.13,0.254-0.195,0.383c-0.071,0.144-0.144,0.289-0.21,0.437c-0.066,0.148-0.127,0.298-0.187,0.45
				c-0.053,0.135-0.103,0.273-0.151,0.411c-0.053,0.157-0.108,0.313-0.154,0.47c-0.049,0.166-0.09,0.337-0.13,0.507
				c-0.051,0.212-0.097,0.427-0.135,0.645c-0.036,0.206-0.07,0.411-0.095,0.617c-0.015,0.129-0.023,0.258-0.034,0.387
				c-0.017,0.208-0.027,0.419-0.031,0.629c-0.002,0.075-0.012,0.148-0.012,0.223v53.336H48v-32.002
				c0-75.244,39.945-143.618,104.871-180.67c4.748,5.832,10.476,10.44,17.706,15.353c-10.476,5.427-20.483,11.865-29.751,19.156
				c-4.63,3.644-5.43,10.35-1.787,14.979c2.105,2.675,5.231,4.07,8.389,4.07c2.308,0,4.635-0.746,6.589-2.286
				c8.397-6.606,17.477-12.429,26.988-17.305l10.164-5.211c0.44,0.295,0.865,0.575,1.311,0.877c0.213,0.144,0.431,0.282,0.654,0.411
				c20.606,11.896,41.746,17.932,62.831,17.935c0.011,0,0.019,0,0.029,0c21.096,0,42.25-6.035,62.869-17.939
				c0.223-0.129,0.439-0.264,0.652-0.411c4.868-3.302,9.327-6.135,13.261-8.638c11.51-7.321,19.85-13.01,26.35-20.994
				c64.927,37.054,104.871,105.426,104.871,180.67V490.663z"/>
		</g>
	</g>
</g>
<g>
</g>
<g>
</g>
<g>
</g>
<g>
</g>
<g>
</g>
<g>
</g>
<g>
</g>
<g>
</g>
<g>
</g>
<g>
</g>
<g>
</g>
<g>
</g>
<g>
</g>
<g>
</g>
<g>
</g>
</svg>
