<?xml version="1.0" encoding="iso-8859-1"?>
<!-- Generator: Adobe Illustrator 18.0.0, SVG Export Plug-In . SVG Version: 6.00 Build 0)  -->
<!DOCTYPE svg PUBLIC "-//W3C//DTD SVG 1.1//EN" "http://www.w3.org/Graphics/SVG/1.1/DTD/svg11.dtd">
<svg version="1.1" id="Capa_1" xmlns="http://www.w3.org/2000/svg" xmlns:xlink="http://www.w3.org/1999/xlink" x="0px" y="0px"
	 viewBox="0 0 482.218 482.218" style="enable-background:new 0 0 482.218 482.218;" xml:space="preserve">
<g>
	<g>
		<path d="M466.572,73.891H325.1c-8.635,0-15.644,7.011-15.644,15.646v303.146c0,8.667,7.009,15.645,15.644,15.645h141.473
			c8.636,0,15.646-6.978,15.646-15.645V89.536C482.218,80.901,475.208,73.891,466.572,73.891z M395.837,299.228
			c-11.821,0-21.411-9.591-21.411-21.412s9.59-21.412,21.411-21.412c11.821,0,21.412,9.591,21.412,21.412
			S407.658,299.228,395.837,299.228z M437.642,230.913h-83.608c-6.756,0-12.236-5.48-12.236-12.235
			c0-6.756,5.48-12.235,12.236-12.235h83.608c6.754,0,12.235,5.479,12.235,12.235C449.877,225.433,444.396,230.913,437.642,230.913z
			 M437.642,133.029h-83.608c-6.756,0-12.236-5.48-12.236-12.235c0-6.756,5.48-12.235,12.236-12.235h83.608
			c6.754,0,12.235,5.479,12.235,12.235C449.877,127.549,444.396,133.029,437.642,133.029z"/>
	</g>
	<g>
		<path d="M257.647,106.519H31.959C14.338,106.519,0,120.857,0,138.479v166.517c0,17.62,14.338,31.959,31.959,31.959h88.356v22.432
			H78.894c-6.405,0-11.566,5.161-11.566,11.534v25.873c0,6.373,5.161,11.534,11.566,11.534h131.817
			c6.373,0,11.535-5.161,11.535-11.534V370.92c0-6.373-5.162-11.534-11.535-11.534h-41.453v-22.432h88.389
			c17.621,0,31.926-14.339,31.926-31.959V138.479C289.572,120.857,275.268,106.519,257.647,106.519z M32.564,288.744l-0.605-149.598
			l224.986-0.668v150.266H32.564z M187.992,319.015c-3.377,0-6.148-2.771-6.148-6.15c0-3.407,2.771-6.148,6.148-6.148
			c3.41,0,6.15,2.741,6.15,6.148C194.143,316.243,191.402,319.015,187.992,319.015z M214.472,319.015c-3.377,0-6.15-2.771-6.15-6.15
			c0-3.407,2.773-6.148,6.15-6.148c3.409,0,6.148,2.741,6.148,6.148C220.62,316.243,217.881,319.015,214.472,319.015z
			 M247.1,323.571c-5.895,0-10.707-4.81-10.707-10.707c0-5.925,4.813-10.705,10.707-10.705c5.927,0,10.705,4.78,10.705,10.705
			C257.805,318.761,253.026,323.571,247.1,323.571z"/>
	</g>
</g>
<g>
</g>
<g>
</g>
<g>
</g>
<g>
</g>
<g>
</g>
<g>
</g>
<g>
</g>
<g>
</g>
<g>
</g>
<g>
</g>
<g>
</g>
<g>
</g>
<g>
</g>
<g>
</g>
<g>
</g>
</svg>
