<?xml version="1.0" encoding="iso-8859-1"?>
<!-- Generator: Adobe Illustrator 16.0.0, SVG Export Plug-In . SVG Version: 6.00 Build 0)  -->
<!DOCTYPE svg PUBLIC "-//W3C//DTD SVG 1.1//EN" "http://www.w3.org/Graphics/SVG/1.1/DTD/svg11.dtd">
<svg version="1.1" id="Capa_1" xmlns="http://www.w3.org/2000/svg" xmlns:xlink="http://www.w3.org/1999/xlink" x="0px" y="0px"
	 width="693.906px" height="693.906px" viewBox="0 0 693.906 693.906" style="enable-background:new 0 0 693.906 693.906;"
	 xml:space="preserve">
<g>
	<g>
		<path d="M575.436,36.386C502.558,12.24,426.525,0,349.46,0c-78.403,0-154.954,12.202-227.406,36.226
			C75.82,50.779,40.953,97.287,40.953,144.398v253.039c0,35.196,18.542,92.024,52.961,128.081
			c108.78,111.684,178.151,168.389,255.432,168.389c76.103,0,142.448-54.383,253.769-168.696
			c32.719-34.112,49.838-90.222,49.838-128.026V144.398C652.953,96.818,619.584,50.374,575.436,36.386z M636.07,397.184
			c0,33.584-15.823,85.769-45.098,116.293C483.07,624.286,419.389,677.023,349.347,677.023
			c-54.667,0-109.637-26.021-243.277-163.227c-30.195-31.626-48.234-83.996-48.234-116.36V144.398
			c0-39.396,30.436-79.838,69.409-92.108c70.857-23.497,145.618-35.408,222.215-35.408c75.26,0,149.501,11.953,220.771,35.564
			c36.919,11.695,65.839,52.087,65.839,91.952V397.184z"/>
		<path d="M552.986,105.977c-66.168-21.935-134.763-33.061-203.881-33.061c-70.152,0-139.114,11.071-204.847,32.866
			c-14.924,4.702-31.554,21.678-31.554,38.531V397.26c0,21.964,16.085,59.608,33.162,77.521
			c87.837,90.137,152.654,146.002,204.34,146.002c49.476,0,108.957-51.442,201.462-146.407
			c16.904-17.647,29.532-55.422,29.532-77.412V144.398C581.201,129.204,567.43,110.519,552.986,105.977z M564.318,396.964
			c0,18.026-11.079,51.37-24.792,65.683c-87.141,89.462-146.053,141.258-189.319,141.258c-28.54,0-71.579-17.068-192.181-140.832
			c-14.088-14.78-28.439-47.993-28.439-65.812V144.313c0-7.728,10.328-19.461,19.863-22.462
			c64.138-21.268,131.314-32.052,199.655-32.052c67.308,0,134.117,10.834,198.693,32.246c7.563,2.376,16.52,14.494,16.52,22.353
			V396.964z"/>
		<path d="M446.215,236.831c-8.015-6.571-18.132-10.188-28.48-10.188c-13.511,0-26.211,5.993-34.867,16.469l-60.487,73.795
			l-6.947-7.293c-8.589-9.003-20.158-13.962-32.571-13.962c-11.59,0-22.614,4.41-31.043,12.417
			c-8.716,8.293-13.679,19.483-13.975,31.507c-0.292,12.017,4.115,23.421,12.4,32.107l42.055,44.156
			c8.462,8.872,20.339,13.958,32.584,13.958c0.734,0,1.401-0.013,1.865-0.047c12.793-0.506,24.801-6.495,32.943-16.427l92.8-113.165
			C468.209,280.958,465.395,252.553,446.215,236.831z M439.429,289.459l-92.801,113.169c-5.086,6.205-12.578,9.944-20.728,10.273
			c-0.321,0.017-0.654,0.021-1.026,0.021c-7.652,0-15.076-3.183-20.36-8.721l-42.055-44.152c-5.174-5.428-7.926-12.552-7.741-20.052
			c0.182-7.509,3.284-14.507,8.729-19.681c5.276-5.014,12.164-7.774,19.411-7.774c7.753,0,14.983,3.098,20.352,8.728l13.536,14.194
			c1.671,1.748,3.989,2.663,6.424,2.613c2.418-0.089,4.681-1.216,6.213-3.085l66.514-81.151
			c5.415-6.555,13.371-10.311,21.829-10.311c6.458,0,12.771,2.258,17.782,6.365C447.494,259.711,449.25,277.464,439.429,289.459z"/>
	</g>
</g>
<g>
</g>
<g>
</g>
<g>
</g>
<g>
</g>
<g>
</g>
<g>
</g>
<g>
</g>
<g>
</g>
<g>
</g>
<g>
</g>
<g>
</g>
<g>
</g>
<g>
</g>
<g>
</g>
<g>
</g>
</svg>
